<svg xmlns="http://www.w3.org/2000/svg" viewBox="0 0 700 500" width="100%" height="100%">
  <rect x="15" y="15" width="670" height="470" fill="#FFFFFF" stroke="#000000" stroke-width="2" />

  <g stroke="#E0E0E0" stroke-width="1.5">
    <line x1="170" y1="30" x2="170" y2="420" />
    <line x1="260" y1="30" x2="260" y2="420" />
    <line x1="350" y1="30" x2="350" y2="420" />
    <line x1="440" y1="30" x2="440" y2="420" />
    <line x1="530" y1="30" x2="530" y2="420" />
    <line x1="620" y1="30" x2="620" y2="420" />

    <line x1="80" y1="330" x2="650" y2="330" />
    <line x1="80" y1="240" x2="650" y2="240" />
    <line x1="80" y1="150" x2="650" y2="150" />
    <line x1="80" y1="60" x2="650" y2="60" />
  </g>

  <line x1="50" y1="420" x2="640" y2="420" stroke="#000000" stroke-width="2" />
  <polygon points="665,420 640,410 640,430" fill="#000000" />

  <line x1="80" y1="450" x2="80" y2="45" stroke="#000000" stroke-width="2" />
  <polygon points="80,15 70,42 90,42" fill="#000000" />

  <g stroke="#000000" stroke-width="2">
    <line x1="170" y1="415" x2="170" y2="425" />
    <line x1="260" y1="415" x2="260" y2="425" />
    <line x1="350" y1="415" x2="350" y2="425" />
    <line x1="440" y1="415" x2="440" y2="425" />
    <line x1="530" y1="415" x2="530" y2="425" />
    <line x1="620" y1="415" x2="620" y2="425" />

    <line x1="75" y1="330" x2="85" y2="330" />
    <line x1="75" y1="240" x2="85" y2="240" />
    <line x1="75" y1="150" x2="85" y2="150" />
    <line x1="75" y1="60" x2="85" y2="60" />
  </g>

  <g font-family="Inter, sans-serif" font-size="36" fill="#000000" font-weight="normal">
    <text x="170" y="460" text-anchor="middle">1</text>
    <text x="260" y="460" text-anchor="middle">2</text>
    <text x="350" y="460" text-anchor="middle">3</text>
    <text x="440" y="460" text-anchor="middle">4</text>
    <text x="530" y="460" text-anchor="middle">5</text>
    <text x="620" y="460" text-anchor="middle">6</text>

    <text x="60" y="342" text-anchor="end">1</text>
    <text x="60" y="252" text-anchor="end">2</text>
    <text x="60" y="162" text-anchor="end">3</text>
    <text x="60" y="72" text-anchor="end">4</text>
  </g>

  <g transform="translate(170, 240) rotate(-63.435)">
    <line x1="-201.2" y1="0" x2="-30" y2="0" stroke="#0012FF" stroke-width="9" stroke-linecap="round" />
    <polygon points="0,0 -42,-28 -42,28" fill="#0012FF" />
  </g>

  <g transform="translate(440, 150) rotate(-36.87)">
    <line x1="-450" y1="0" x2="-30" y2="0" stroke="#0B6623" stroke-width="5.5" stroke-linecap="round" />
    <polygon points="0,0 -38,-22 -38,22" fill="#0B6623" />
  </g>

  <g transform="translate(620, 240) rotate(-18.435)">
    <line x1="-569.2" y1="0" x2="-30" y2="0" stroke="#8A2BE2" stroke-width="5.5" stroke-linecap="round" />
    <polygon points="0,0 -38,-22 -38,22" fill="#8A2BE2" />
  </g>

  <g transform="translate(350, 333) rotate(-18.435)">
    <line x1="-284.6" y1="0" x2="-30" y2="0" stroke="#D10A10" stroke-width="5.5" stroke-linecap="round" />
    <polygon points="0,0 -38,-22 -38,22" fill="#D10A10" />
  </g>

  <circle cx="80" cy="420" r="4" fill="#8A2BE2" stroke="#0012FF" stroke-width="1.5" />
</svg>
